<?xml version="1.0" encoding="utf-8"?>
<!-- Generator: Adobe Illustrator 19.2.1, SVG Export Plug-In . SVG Version: 6.00 Build 0)  -->
<svg version="1.1" id="Capa_1" xmlns="http://www.w3.org/2000/svg" xmlns:xlink="http://www.w3.org/1999/xlink" x="0px" y="0px"
	 viewBox="0 0 512 512" style="enable-background:new 0 0 512 512;" xml:space="preserve">
<style type="text/css">
	.st0{opacity:0.7;}
	.st1{fill:#00b3b3;}
</style>
<g class="st0">
	<g id="account-circle">
		<path class="st1" d="M256,0C115.2,0,0,115.2,0,256s115.2,256,256,256s256-115.2,256-256S396.8,0,256,0z M256,76.8
			c43.5,0,76.8,33.3,76.8,76.8s-33.3,76.8-76.8,76.8s-76.8-33.3-76.8-76.8S212.5,76.8,256,76.8z M256,440.3
			c-64,0-120.3-33.3-153.6-81.9c0-51.2,102.4-79.4,153.6-79.4s153.6,28.2,153.6,79.4C376.3,407,320,440.3,256,440.3z"/>
	</g>
</g>
</svg>
