<?xml version="1.0" encoding="UTF-8" standalone="no"?>
<!-- Created with Inkscape (http://www.inkscape.org/) -->

<svg
   xmlns:osb="http://www.openswatchbook.org/uri/2009/osb"
   xmlns:dc="http://purl.org/dc/elements/1.1/"
   xmlns:cc="http://creativecommons.org/ns#"
   xmlns:rdf="http://www.w3.org/1999/02/22-rdf-syntax-ns#"
   xmlns:svg="http://www.w3.org/2000/svg"
   xmlns="http://www.w3.org/2000/svg"
   xmlns:xlink="http://www.w3.org/1999/xlink"
   xmlns:sodipodi="http://sodipodi.sourceforge.net/DTD/sodipodi-0.dtd"
   xmlns:inkscape="http://www.inkscape.org/namespaces/inkscape"
   width="2.125in"
   height="3.375in"
   viewBox="0 0 53.975 85.725003"
   version="1.1"
   id="svg8"
   inkscape:version="0.92.3 (2405546, 2018-03-11)"
   sodipodi:docname="demo_credit_card_90.svg">
  <defs
     id="defs2">
    <linearGradient
       id="linearGradient2360"
       osb:paint="solid">
      <stop
         style="stop-color:#000000;stop-opacity:1;"
         offset="0"
         id="stop2358" />
    </linearGradient>
    <linearGradient
       id="linearGradient2354"
       osb:paint="solid">
      <stop
         style="stop-color:#000000;stop-opacity:1;"
         offset="0"
         id="stop2352" />
    </linearGradient>
    <inkscape:path-effect
       effect="bspline"
       id="path-effect4057"
       is_visible="true"
       weight="33.333333"
       steps="2"
       helper_size="0"
       apply_no_weight="true"
       apply_with_weight="true"
       only_selected="false" />
    <inkscape:path-effect
       effect="bspline"
       id="path-effect4053"
       is_visible="true"
       weight="33.333333"
       steps="2"
       helper_size="0"
       apply_no_weight="true"
       apply_with_weight="true"
       only_selected="false" />
    <inkscape:path-effect
       effect="bspline"
       id="path-effect4031"
       is_visible="true"
       weight="33.333333"
       steps="2"
       helper_size="0"
       apply_no_weight="true"
       apply_with_weight="true"
       only_selected="false" />
    <inkscape:path-effect
       effect="bspline"
       id="path-effect4027"
       is_visible="true"
       weight="33.333333"
       steps="2"
       helper_size="0"
       apply_no_weight="true"
       apply_with_weight="true"
       only_selected="false" />
    <inkscape:path-effect
       effect="bspline"
       id="path-effect4023"
       is_visible="true"
       weight="33.333333"
       steps="2"
       helper_size="0"
       apply_no_weight="true"
       apply_with_weight="true"
       only_selected="false" />
    <inkscape:path-effect
       effect="bspline"
       id="path-effect4019"
       is_visible="true"
       weight="33.333333"
       steps="2"
       helper_size="0"
       apply_no_weight="true"
       apply_with_weight="true"
       only_selected="false" />
    <inkscape:path-effect
       effect="bspline"
       id="path-effect3918"
       is_visible="true"
       weight="33.333333"
       steps="2"
       helper_size="0"
       apply_no_weight="true"
       apply_with_weight="true"
       only_selected="false" />
    <inkscape:path-effect
       effect="bspline"
       id="path-effect59"
       is_visible="true"
       weight="33.333333"
       steps="2"
       helper_size="0"
       apply_no_weight="true"
       apply_with_weight="true"
       only_selected="false" />
    <inkscape:path-effect
       effect="bspline"
       id="path-effect2525"
       is_visible="true"
       weight="33.333333"
       steps="2"
       helper_size="0"
       apply_no_weight="true"
       apply_with_weight="true"
       only_selected="false" />
    <inkscape:path-effect
       effect="bspline"
       id="path-effect2521"
       is_visible="true"
       weight="33.333333"
       steps="2"
       helper_size="0"
       apply_no_weight="true"
       apply_with_weight="true"
       only_selected="false" />
    <inkscape:path-effect
       effect="bspline"
       id="path-effect1002"
       is_visible="true"
       weight="33.333333"
       steps="2"
       helper_size="0"
       apply_no_weight="true"
       apply_with_weight="true"
       only_selected="false" />
    <inkscape:path-effect
       effect="bspline"
       id="path-effect85"
       is_visible="true"
       weight="33.333333"
       steps="2"
       helper_size="0"
       apply_no_weight="true"
       apply_with_weight="true"
       only_selected="false" />
    <inkscape:path-effect
       effect="bspline"
       id="path-effect61"
       is_visible="true"
       weight="33.333333"
       steps="2"
       helper_size="0"
       apply_no_weight="true"
       apply_with_weight="true"
       only_selected="false" />
    <inkscape:path-effect
       effect="bspline"
       id="path-effect47"
       is_visible="true"
       weight="33.333333"
       steps="2"
       helper_size="0"
       apply_no_weight="true"
       apply_with_weight="true"
       only_selected="false" />
    <inkscape:path-effect
       effect="bspline"
       id="path-effect4871"
       is_visible="true"
       weight="33.333333"
       steps="2"
       helper_size="0"
       apply_no_weight="true"
       apply_with_weight="true"
       only_selected="false" />
    <inkscape:path-effect
       effect="bspline"
       id="path-effect4849"
       is_visible="true"
       weight="33.333333"
       steps="2"
       helper_size="0"
       apply_no_weight="true"
       apply_with_weight="true"
       only_selected="false" />
    <inkscape:path-effect
       effect="bspline"
       id="path-effect4825"
       is_visible="true"
       weight="33.333333"
       steps="2"
       helper_size="0"
       apply_no_weight="true"
       apply_with_weight="true"
       only_selected="false" />
    <inkscape:path-effect
       effect="bspline"
       id="path-effect4803"
       is_visible="true"
       weight="33.333333"
       steps="2"
       helper_size="0"
       apply_no_weight="true"
       apply_with_weight="true"
       only_selected="false" />
    <inkscape:path-effect
       effect="bspline"
       id="path-effect4781"
       is_visible="true"
       weight="33.333333"
       steps="2"
       helper_size="0"
       apply_no_weight="true"
       apply_with_weight="true"
       only_selected="false" />
    <inkscape:path-effect
       effect="bspline"
       id="path-effect4781-2"
       is_visible="true"
       weight="33.333333"
       steps="2"
       helper_size="0"
       apply_no_weight="true"
       apply_with_weight="true"
       only_selected="false" />
    <inkscape:path-effect
       effect="bspline"
       id="path-effect4803-7"
       is_visible="true"
       weight="33.333333"
       steps="2"
       helper_size="0"
       apply_no_weight="true"
       apply_with_weight="true"
       only_selected="false" />
    <inkscape:path-effect
       effect="bspline"
       id="path-effect4849-5"
       is_visible="true"
       weight="33.333333"
       steps="2"
       helper_size="0"
       apply_no_weight="true"
       apply_with_weight="true"
       only_selected="false" />
    <inkscape:path-effect
       effect="bspline"
       id="path-effect61-2"
       is_visible="true"
       weight="33.333333"
       steps="2"
       helper_size="0"
       apply_no_weight="true"
       apply_with_weight="true"
       only_selected="false" />
    <inkscape:path-effect
       effect="bspline"
       id="path-effect4023-1"
       is_visible="true"
       weight="33.333333"
       steps="2"
       helper_size="0"
       apply_no_weight="true"
       apply_with_weight="true"
       only_selected="false" />
    <inkscape:path-effect
       effect="bspline"
       id="path-effect4057-5"
       is_visible="true"
       weight="33.333333"
       steps="2"
       helper_size="0"
       apply_no_weight="true"
       apply_with_weight="true"
       only_selected="false" />
    <linearGradient
       inkscape:collect="always"
       xlink:href="#linearGradient2354"
       id="linearGradient2356"
       x1="13.325801"
       y1="79.684608"
       x2="86.709091"
       y2="79.684608"
       gradientUnits="userSpaceOnUse" />
    <linearGradient
       inkscape:collect="always"
       xlink:href="#linearGradient2360"
       id="linearGradient2362"
       x1="13.458093"
       y1="79.684608"
       x2="86.576797"
       y2="79.684608"
       gradientUnits="userSpaceOnUse" />
  </defs>
  <sodipodi:namedview
     id="base"
     pagecolor="#ffffff"
     bordercolor="#666666"
     borderopacity="1.0"
     inkscape:pageopacity="0.0"
     inkscape:pageshadow="2"
     inkscape:zoom="2.4422628"
     inkscape:cx="101.99346"
     inkscape:cy="162.03734"
     inkscape:document-units="in"
     inkscape:current-layer="layer2"
     showgrid="false"
     inkscape:measure-start="0,0"
     inkscape:measure-end="0,0"
     inkscape:window-width="1680"
     inkscape:window-height="988"
     inkscape:window-x="1672"
     inkscape:window-y="-8"
     inkscape:window-maximized="1"
     inkscape:object-nodes="false"
     inkscape:snap-intersection-paths="true"
     inkscape:snap-global="false"
     showguides="true"
     units="in">
    <inkscape:grid
       type="xygrid"
       id="grid4969"
       originx="-7.7254317"
       originy="-200.8486" />
  </sodipodi:namedview>
  <metadata
     id="metadata5">
    <rdf:RDF>
      <cc:Work
         rdf:about="">
        <dc:format>image/svg+xml</dc:format>
        <dc:type
           rdf:resource="http://purl.org/dc/dcmitype/StillImage" />
        <dc:title></dc:title>
      </cc:Work>
    </rdf:RDF>
  </metadata>
  <g
     inkscape:groupmode="layer"
     id="layer2"
     inkscape:label="Layer 1 copy 1"
     transform="translate(0,-2.4235854)"
     style="display:inline">
    <g
       id="g924"
       transform="rotate(90,42.878605,45.281383)">
      <rect
         ry="4.062417"
         y="34.571236"
         x="0.40780574"
         height="53.205967"
         width="84.931244"
         id="rect61"
         style="opacity:1;fill:#ececec;fill-opacity:1;stroke:#1a1a1a;stroke-width:0.76200002;stroke-miterlimit:4;stroke-dasharray:none" />
      <rect
         ry="3.2550037"
         y="46.200054"
         x="22.878656"
         height="9.1807795"
         width="55.973137"
         id="rect2372-2"
         style="display:inline;opacity:1;fill:#999999;fill-opacity:1;stroke:#999999;stroke-width:0.26458335;stroke-opacity:1"
         transform="translate(-7.7254321,-8.0028026)" />
      <rect
         ry="3.8500042"
         y="62.093662"
         x="13.056208"
         height="10.858987"
         width="14.70899"
         id="rect2372"
         style="display:inline;opacity:1;fill:#999999;fill-opacity:1;stroke:#999999;stroke-width:0.26458335;stroke-opacity:1"
         transform="translate(-7.7254321,-8.0028026)" />
      <g
         id="text87"
         style="font-style:normal;font-variant:normal;font-weight:normal;font-stretch:normal;font-size:7.05555582px;line-height:1.25;font-family:Consolas;-inkscape-font-specification:Consolas;letter-spacing:0px;word-spacing:0px;display:inline;fill:#000000;fill-opacity:1;stroke:none;stroke-width:0.26458335;stroke-opacity:1"
         aria-label="0123 4567 8910 1112"
         transform="translate(-7.7254321,-8.0028026)">
        <path
           inkscape:connector-curvature="0"
           id="path56"
           style="font-style:normal;font-variant:normal;font-weight:normal;font-stretch:normal;font-size:7.05555582px;font-family:Consolas;-inkscape-font-specification:Consolas;fill:#000000;fill-opacity:1;stroke:none;stroke-width:0.26458335;stroke-opacity:1"
           d="m 16.730934,79.686334 q 0,0.516765 -0.103353,0.943957 -0.103353,0.423746 -0.313504,0.73036 -0.210151,0.303168 -0.523654,0.471978 -0.310059,0.165364 -0.730361,0.165364 -0.361735,0 -0.658013,-0.134358 -0.296278,-0.137804 -0.506429,-0.420302 -0.210151,-0.282498 -0.323839,-0.720025 -0.113688,-0.437527 -0.113688,-1.036974 0,-0.516764 0.103353,-0.943956 0.106798,-0.427192 0.313503,-0.73036 0.210151,-0.306614 0.523655,-0.471978 0.313504,-0.16881 0.73036,-0.16881 0.361735,0 0.658013,0.137804 0.296279,0.134359 0.506429,0.420302 0.210151,0.282497 0.323839,0.720025 0.113689,0.437527 0.113689,1.036973 z m -0.606337,0.02067 q 0,-0.117133 -0.01034,-0.230822 -0.0069,-0.117133 -0.01723,-0.227376 l -1.905138,1.415934 q 0.05168,0.179145 0.130914,0.33073 0.07924,0.151584 0.18948,0.261827 0.113688,0.106798 0.254937,0.16881 0.144694,0.05857 0.327284,0.05857 0.234267,0 0.423747,-0.113688 0.192925,-0.113688 0.327284,-0.337619 0.134359,-0.223932 0.206706,-0.554661 0.07235,-0.334174 0.07235,-0.771701 z m -2.060167,-0.04134 q 0,0.106798 0,0.213596 0.0034,0.106798 0.01378,0.206705 l 1.905138,-1.409044 q -0.05168,-0.1757 -0.130914,-0.320394 -0.07924,-0.144694 -0.18948,-0.248046 -0.110243,-0.106798 -0.251492,-0.165365 -0.141249,-0.05857 -0.316949,-0.05857 -0.234266,0 -0.427192,0.113688 -0.18948,0.113689 -0.323839,0.341065 -0.134358,0.223931 -0.206705,0.558105 -0.07235,0.33073 -0.07235,0.768257 z" />
        <path
           inkscape:connector-curvature="0"
           id="path58"
           style="font-style:normal;font-variant:normal;font-weight:normal;font-stretch:normal;font-size:7.05555582px;font-family:Consolas;-inkscape-font-specification:Consolas;fill:#000000;fill-opacity:1;stroke:none;stroke-width:0.26458335;stroke-opacity:1"
           d="m 20.475753,81.935982 h -2.828424 v -0.558106 h 1.157552 v -3.286621 l -1.078315,0.585666 -0.220486,-0.509874 1.43316,-0.754476 h 0.530545 v 3.965305 h 1.005968 z" />
        <path
           inkscape:connector-curvature="0"
           id="path60"
           style="font-style:normal;font-variant:normal;font-weight:normal;font-stretch:normal;font-size:7.05555582px;font-family:Consolas;-inkscape-font-specification:Consolas;fill:#000000;fill-opacity:1;stroke:none;stroke-width:0.26458335;stroke-opacity:1"
           d="m 24.399717,81.935982 h -2.966228 v -0.537435 l 1.164443,-1.157552 q 0.285942,-0.282498 0.465087,-0.489204 0.179145,-0.206706 0.279053,-0.375515 0.09991,-0.172255 0.134359,-0.323839 0.03445,-0.151584 0.03445,-0.327284 0,-0.165365 -0.04479,-0.313504 -0.04479,-0.151584 -0.137804,-0.265272 -0.09302,-0.113689 -0.241157,-0.179145 -0.148139,-0.06546 -0.354845,-0.06546 -0.285943,0 -0.520209,0.127468 -0.234267,0.127469 -0.430637,0.33073 L 21.45071,77.963784 q 0.254937,-0.268718 0.585666,-0.430637 0.334174,-0.16192 0.775146,-0.16192 0.299724,0 0.544326,0.08957 0.248046,0.08957 0.427191,0.258382 0.179145,0.168809 0.275608,0.413411 0.09991,0.244602 0.09991,0.551215 0,0.258383 -0.0689,0.478869 -0.0689,0.220486 -0.210151,0.440972 -0.137804,0.217041 -0.3514,0.451308 -0.210151,0.234266 -0.499539,0.513319 L 22.21208,81.36409 h 2.187636 z" />
        <path
           inkscape:connector-curvature="0"
           id="path62"
           style="font-style:normal;font-variant:normal;font-weight:normal;font-stretch:normal;font-size:7.05555582px;font-family:Consolas;-inkscape-font-specification:Consolas;fill:#000000;fill-opacity:1;stroke:none;stroke-width:0.26458335;stroke-opacity:1"
           d="m 28.199657,80.568279 q 0,0.296278 -0.120579,0.558105 -0.120578,0.258382 -0.361735,0.454753 -0.241157,0.192925 -0.606337,0.306613 -0.36518,0.110243 -0.850938,0.110243 -0.268718,0 -0.482314,-0.01722 -0.213596,-0.01722 -0.399631,-0.04479 v -0.537435 q 0.213596,0.0379 0.451308,0.05857 0.237711,0.02067 0.485758,0.02067 0.33762,0 0.575331,-0.05857 0.241157,-0.06201 0.392741,-0.175699 0.151584,-0.113689 0.220486,-0.275608 0.0689,-0.16192 0.0689,-0.36518 0,-0.186035 -0.08268,-0.323839 -0.08268,-0.137804 -0.234267,-0.230822 -0.148139,-0.09302 -0.35829,-0.137803 -0.206705,-0.04823 -0.454752,-0.04823 h -0.51332 v -0.492648 h 0.52021 q 0.203261,0 0.368625,-0.05168 0.16881,-0.05512 0.285943,-0.155029 0.120578,-0.09991 0.18259,-0.244602 0.06546,-0.148139 0.06546,-0.334174 0,-0.361735 -0.220486,-0.5271 -0.220486,-0.165365 -0.647678,-0.165365 -0.227376,0 -0.468533,0.04479 -0.241157,0.04479 -0.516764,0.134358 V 77.54693 q 0.117133,-0.04134 0.248046,-0.07235 0.134359,-0.03445 0.265273,-0.05512 0.134359,-0.02411 0.265272,-0.03445 0.130914,-0.01378 0.251492,-0.01378 0.35829,0 0.630453,0.07924 0.272162,0.07579 0.454752,0.220486 0.18259,0.144694 0.275608,0.3514 0.09302,0.206706 0.09302,0.465088 0,0.385851 -0.199815,0.647678 -0.196371,0.261827 -0.54088,0.416857 0.1757,0.02756 0.344509,0.110243 0.172255,0.08268 0.306614,0.213596 0.137804,0.127468 0.220486,0.303168 0.08613,0.1757 0.08613,0.389296 z" />
        <path
           inkscape:connector-curvature="0"
           id="path64"
           style="font-style:normal;font-variant:normal;font-weight:normal;font-stretch:normal;font-size:7.05555582px;font-family:Consolas;-inkscape-font-specification:Consolas;fill:#000000;fill-opacity:1;stroke:none;stroke-width:0.26458335;stroke-opacity:1"
           d="m 36.281852,80.940349 h -0.768257 v 0.995633 h -0.613227 v -0.995633 h -2.166965 v -0.5271 l 1.918919,-2.980007 h 0.861273 v 2.980007 h 0.768257 z m -1.381484,-2.928331 -1.567518,2.401231 h 1.567518 z" />
        <path
           inkscape:connector-curvature="0"
           id="path66"
           style="font-style:normal;font-variant:normal;font-weight:normal;font-stretch:normal;font-size:7.05555582px;font-family:Consolas;-inkscape-font-specification:Consolas;fill:#000000;fill-opacity:1;stroke:none;stroke-width:0.26458335;stroke-opacity:1"
           d="m 39.830299,80.495932 q 0,0.334174 -0.144694,0.609782 -0.144694,0.275607 -0.399631,0.475423 -0.251492,0.19637 -0.596002,0.306613 -0.344509,0.110243 -0.74414,0.110243 -0.09991,0 -0.217041,-0.0069 -0.113689,-0.0034 -0.227377,-0.01378 -0.113688,-0.0069 -0.223931,-0.01723 -0.106798,-0.01033 -0.192925,-0.02412 v -0.544325 q 0.186035,0.04479 0.423746,0.06546 0.241157,0.02067 0.485759,0.02067 0.275608,0 0.496094,-0.06546 0.220486,-0.06546 0.375515,-0.186035 0.155029,-0.124023 0.237712,-0.296278 0.08268,-0.1757 0.08268,-0.392741 0,-0.420302 -0.303168,-0.609782 -0.299724,-0.192925 -0.864719,-0.192925 h -0.854384 v -2.301324 h 2.425347 v 0.523654 h -1.860351 v 1.26435 h 0.39274 q 0.323839,0 0.630453,0.05857 0.306613,0.05857 0.544325,0.206706 0.241157,0.144694 0.385851,0.392741 0.148139,0.244601 0.148139,0.616672 z" />
        <path
           inkscape:connector-curvature="0"
           id="path68"
           style="font-style:normal;font-variant:normal;font-weight:normal;font-stretch:normal;font-size:7.05555582px;font-family:Consolas;-inkscape-font-specification:Consolas;fill:#000000;fill-opacity:1;stroke:none;stroke-width:0.26458335;stroke-opacity:1"
           d="m 43.885177,80.509712 q 0,0.310059 -0.113688,0.582221 -0.110243,0.272163 -0.316949,0.475424 -0.206706,0.199815 -0.499539,0.316948 -0.289388,0.113688 -0.644233,0.113688 -0.37207,0 -0.658013,-0.117133 -0.285943,-0.120578 -0.478868,-0.36518 -0.192926,-0.248047 -0.292833,-0.623562 -0.09991,-0.375516 -0.09991,-0.888835 0,-0.344509 0.04479,-0.668348 0.04479,-0.323839 0.148139,-0.609782 0.103353,-0.285943 0.275608,-0.523655 0.172255,-0.237711 0.427192,-0.406521 0.258382,-0.172255 0.606336,-0.265273 0.347955,-0.09646 0.806153,-0.09646 h 0.444417 v 0.523654 h -0.482313 q -0.403076,0 -0.699355,0.09646 -0.296278,0.09646 -0.496093,0.272163 -0.199816,0.175699 -0.306614,0.423746 -0.106798,0.248047 -0.134359,0.554661 l -0.01378,0.141249 q 0.217041,-0.127469 0.499539,-0.203261 0.285943,-0.07924 0.616672,-0.07924 0.341064,0 0.596001,0.09991 0.258383,0.09991 0.427192,0.279052 0.172255,0.1757 0.258383,0.423747 0.08613,0.248047 0.08613,0.544325 z m -0.627008,0.0379 q 0,-0.206706 -0.05168,-0.37207 -0.04823,-0.16881 -0.155029,-0.282498 -0.106798,-0.117133 -0.272163,-0.179145 -0.161919,-0.06546 -0.389296,-0.06546 -0.130913,0 -0.265272,0.02412 -0.134359,0.02412 -0.265272,0.0689 -0.127469,0.04134 -0.244602,0.09646 -0.117133,0.05512 -0.213596,0.117133 0,0.444417 0.06201,0.74414 0.06201,0.296279 0.18259,0.475424 0.124023,0.179145 0.303168,0.254937 0.179145,0.07579 0.413412,0.07579 0.19637,0 0.35829,-0.06201 0.165364,-0.06546 0.282497,-0.18948 0.120579,-0.124024 0.186036,-0.299723 0.0689,-0.179145 0.0689,-0.406522 z" />
        <path
           inkscape:connector-curvature="0"
           id="path70"
           style="font-style:normal;font-variant:normal;font-weight:normal;font-stretch:normal;font-size:7.05555582px;font-family:Consolas;-inkscape-font-specification:Consolas;fill:#000000;fill-opacity:1;stroke:none;stroke-width:0.26458335;stroke-opacity:1"
           d="m 47.692008,77.991347 -1.887912,3.944635 h -0.685574 l 1.960259,-3.944635 h -2.432237 v -0.558105 h 3.045464 z" />
        <path
           inkscape:connector-curvature="0"
           id="path72"
           style="font-style:normal;font-variant:normal;font-weight:normal;font-stretch:normal;font-size:7.05555582px;font-family:Consolas;-inkscape-font-specification:Consolas;fill:#000000;fill-opacity:1;stroke:none;stroke-width:0.26458335;stroke-opacity:1"
           d="m 55.48826,80.80599 q 0,0.285943 -0.117133,0.509875 -0.117133,0.220486 -0.327284,0.37207 -0.210151,0.151584 -0.496094,0.230821 -0.285943,0.07924 -0.620117,0.07924 -0.368625,0 -0.651123,-0.08268 -0.279053,-0.08268 -0.468533,-0.230821 -0.18948,-0.148139 -0.285943,-0.3514 -0.09646,-0.203261 -0.09646,-0.447862 0,-0.413412 0.230822,-0.713135 0.230821,-0.299724 0.713135,-0.544325 -0.440973,-0.223932 -0.644233,-0.496094 -0.203261,-0.275608 -0.203261,-0.630453 0,-0.217041 0.08957,-0.420301 0.08957,-0.203261 0.268717,-0.361735 0.18259,-0.158475 0.454753,-0.251492 0.272162,-0.09646 0.640787,-0.09646 0.347955,0 0.609782,0.07579 0.265273,0.07235 0.444418,0.210151 0.179145,0.137804 0.268717,0.334174 0.08957,0.196371 0.08957,0.437527 0,0.392741 -0.220486,0.668349 -0.217042,0.275608 -0.620118,0.482313 0.199816,0.09991 0.372071,0.220486 0.172254,0.120579 0.299723,0.268718 0.127468,0.148139 0.19637,0.330729 0.07235,0.18259 0.07235,0.406521 z m -0.713134,-2.328884 q 0,-0.306614 -0.217041,-0.454753 -0.213596,-0.151584 -0.602892,-0.151584 -0.385851,0 -0.602892,0.148139 -0.213596,0.148139 -0.213596,0.444417 0,0.134359 0.05168,0.248047 0.05168,0.113688 0.158474,0.213596 0.110243,0.09991 0.272163,0.196371 0.161919,0.09646 0.38585,0.19637 0.389296,-0.18259 0.578776,-0.37896 0.189481,-0.199816 0.189481,-0.461643 z m 0.06201,2.373671 q 0,-0.127469 -0.04134,-0.248047 -0.04134,-0.120579 -0.148139,-0.237712 -0.106798,-0.117133 -0.285943,-0.234266 -0.179145,-0.117134 -0.454752,-0.241157 -0.234267,0.113688 -0.396186,0.227376 -0.158475,0.110243 -0.258383,0.227377 -0.09646,0.113688 -0.137803,0.237711 -0.04134,0.124024 -0.04134,0.261827 0,0.15503 0.06546,0.275608 0.0689,0.117133 0.186035,0.199816 0.117134,0.08268 0.279053,0.124023 0.16192,0.04134 0.3514,0.04134 0.18259,0 0.344509,-0.0379 0.16192,-0.0379 0.279053,-0.113688 0.120579,-0.07924 0.18948,-0.19637 0.0689,-0.120579 0.0689,-0.285943 z" />
        <path
           inkscape:connector-curvature="0"
           id="path74"
           style="font-style:normal;font-variant:normal;font-weight:normal;font-stretch:normal;font-size:7.05555582px;font-family:Consolas;-inkscape-font-specification:Consolas;fill:#000000;fill-opacity:1;stroke:none;stroke-width:0.26458335;stroke-opacity:1"
           d="m 59.350211,79.431397 q 0,0.658014 -0.158474,1.133437 -0.158475,0.471978 -0.468533,0.778591 -0.310059,0.303169 -0.768257,0.447863 -0.458197,0.144694 -1.057644,0.144694 h -0.375515 v -0.523655 h 0.416856 q 0.444418,0 0.768257,-0.08957 0.323839,-0.08957 0.537434,-0.261828 0.217041,-0.175699 0.33073,-0.423746 0.113688,-0.251492 0.141249,-0.571886 l 0.01378,-0.141249 q -0.217041,0.127468 -0.499539,0.206706 -0.282498,0.07579 -0.613227,0.07579 -0.341064,0 -0.599447,-0.09991 -0.258382,-0.09991 -0.430637,-0.279053 -0.168809,-0.179145 -0.254937,-0.423747 -0.08613,-0.248046 -0.08613,-0.537434 0,-0.313504 0.113688,-0.585667 0.113688,-0.272162 0.316949,-0.471978 0.206706,-0.20326 0.492649,-0.320394 0.285943,-0.117133 0.630452,-0.117133 0.334174,0 0.616672,0.110243 0.285943,0.110243 0.492649,0.35829 0.206706,0.244602 0.323839,0.637343 0.117133,0.392741 0.117133,0.954291 z m -1.577854,-1.567518 q -0.192925,0 -0.35829,0.06546 -0.161919,0.06201 -0.282497,0.186035 -0.117134,0.120578 -0.186036,0.299723 -0.0689,0.179145 -0.0689,0.409966 0,0.210151 0.04823,0.375516 0.05168,0.165364 0.155029,0.282498 0.106798,0.113688 0.272163,0.1757 0.165364,0.06201 0.392741,0.06201 0.127468,0 0.261827,-0.02412 0.137804,-0.02412 0.265272,-0.06546 0.130914,-0.04134 0.248047,-0.09646 0.117133,-0.05512 0.210151,-0.117133 0,-0.444417 -0.06546,-0.740696 -0.06546,-0.299723 -0.18948,-0.478868 -0.124024,-0.18259 -0.303169,-0.258382 -0.175699,-0.07579 -0.399631,-0.07579 z" />
        <path
           inkscape:connector-curvature="0"
           id="path76"
           style="font-style:normal;font-variant:normal;font-weight:normal;font-stretch:normal;font-size:7.05555582px;font-family:Consolas;-inkscape-font-specification:Consolas;fill:#000000;fill-opacity:1;stroke:none;stroke-width:0.26458335;stroke-opacity:1"
           d="m 63.222497,81.935982 h -2.828423 v -0.558106 h 1.157552 v -3.286621 l -1.078315,0.585666 -0.220486,-0.509874 1.43316,-0.754476 h 0.530544 v 3.965305 h 1.005968 z" />
        <path
           inkscape:connector-curvature="0"
           id="path78"
           style="font-style:normal;font-variant:normal;font-weight:normal;font-stretch:normal;font-size:7.05555582px;font-family:Consolas;-inkscape-font-specification:Consolas;fill:#000000;fill-opacity:1;stroke:none;stroke-width:0.26458335;stroke-opacity:1"
           d="m 67.249816,79.686334 q 0,0.516765 -0.103352,0.943957 -0.103353,0.423746 -0.313504,0.73036 -0.210151,0.303168 -0.523655,0.471978 -0.310058,0.165364 -0.73036,0.165364 -0.361735,0 -0.658013,-0.134358 -0.296278,-0.137804 -0.506429,-0.420302 -0.210151,-0.282498 -0.323839,-0.720025 -0.113688,-0.437527 -0.113688,-1.036974 0,-0.516764 0.103352,-0.943956 0.106798,-0.427192 0.313504,-0.73036 0.210151,-0.306614 0.523655,-0.471978 0.313503,-0.16881 0.73036,-0.16881 0.361735,0 0.658013,0.137804 0.296278,0.134359 0.506429,0.420302 0.210151,0.282497 0.323839,0.720025 0.113688,0.437527 0.113688,1.036973 z m -0.606336,0.02067 q 0,-0.117133 -0.01034,-0.230822 -0.0069,-0.117133 -0.01722,-0.227376 l -1.905138,1.415934 q 0.05168,0.179145 0.130914,0.33073 0.07924,0.151584 0.18948,0.261827 0.113688,0.106798 0.254937,0.16881 0.144694,0.05857 0.327284,0.05857 0.234266,0 0.423747,-0.113688 0.192925,-0.113688 0.327284,-0.337619 0.134359,-0.223932 0.206706,-0.554661 0.07235,-0.334174 0.07235,-0.771701 z m -2.060168,-0.04134 q 0,0.106798 0,0.213596 0.0034,0.106798 0.01378,0.206705 l 1.905138,-1.409044 q -0.05168,-0.1757 -0.130914,-0.320394 -0.07924,-0.144694 -0.18948,-0.248046 -0.110243,-0.106798 -0.251492,-0.165365 -0.141249,-0.05857 -0.316949,-0.05857 -0.234267,0 -0.427192,0.113688 -0.18948,0.113689 -0.323839,0.341065 -0.134359,0.223931 -0.206706,0.558105 -0.07235,0.33073 -0.07235,0.768257 z" />
        <path
           inkscape:connector-curvature="0"
           id="path80"
           style="font-style:normal;font-variant:normal;font-weight:normal;font-stretch:normal;font-size:7.05555582px;font-family:Consolas;-inkscape-font-specification:Consolas;fill:#000000;fill-opacity:1;stroke:none;stroke-width:0.26458335;stroke-opacity:1"
           d="m 74.880704,81.935982 h -2.828423 v -0.558106 h 1.157552 v -3.286621 l -1.078315,0.585666 -0.220486,-0.509874 1.43316,-0.754476 h 0.530544 v 3.965305 h 1.005968 z" />
        <path
           inkscape:connector-curvature="0"
           id="path82"
           style="font-style:normal;font-variant:normal;font-weight:normal;font-stretch:normal;font-size:7.05555582px;font-family:Consolas;-inkscape-font-specification:Consolas;fill:#000000;fill-opacity:1;stroke:none;stroke-width:0.26458335;stroke-opacity:1"
           d="m 78.766771,81.935982 h -2.828424 v -0.558106 h 1.157552 v -3.286621 l -1.078315,0.585666 -0.220486,-0.509874 1.43316,-0.754476 h 0.530545 v 3.965305 h 1.005968 z" />
        <path
           inkscape:connector-curvature="0"
           id="path84"
           style="font-style:normal;font-variant:normal;font-weight:normal;font-stretch:normal;font-size:7.05555582px;font-family:Consolas;-inkscape-font-specification:Consolas;fill:#000000;fill-opacity:1;stroke:none;stroke-width:0.26458335;stroke-opacity:1"
           d="m 82.652841,81.935982 h -2.828424 v -0.558106 h 1.157552 v -3.286621 l -1.078314,0.585666 -0.220487,-0.509874 1.43316,-0.754476 h 0.530545 v 3.965305 h 1.005968 z" />
        <path
           inkscape:connector-curvature="0"
           id="path86"
           style="font-style:normal;font-variant:normal;font-weight:normal;font-stretch:normal;font-size:7.05555582px;font-family:Consolas;-inkscape-font-specification:Consolas;fill:#000000;fill-opacity:1;stroke:none;stroke-width:0.26458335;stroke-opacity:1"
           d="m 86.5768,81.935982 h -2.966228 v -0.537435 l 1.164443,-1.157552 q 0.285942,-0.282498 0.465087,-0.489204 0.179145,-0.206706 0.279053,-0.375515 0.09991,-0.172255 0.134359,-0.323839 0.03445,-0.151584 0.03445,-0.327284 0,-0.165365 -0.04479,-0.313504 -0.04479,-0.151584 -0.137804,-0.265272 -0.09302,-0.113689 -0.241157,-0.179145 -0.148139,-0.06546 -0.354845,-0.06546 -0.285943,0 -0.520209,0.127468 -0.234267,0.127469 -0.430637,0.33073 l -0.330729,-0.396186 q 0.254937,-0.268718 0.585666,-0.430637 0.334174,-0.16192 0.775146,-0.16192 0.299724,0 0.544326,0.08957 0.248046,0.08957 0.427191,0.258382 0.179145,0.168809 0.275608,0.413411 0.09991,0.244602 0.09991,0.551215 0,0.258383 -0.0689,0.478869 -0.0689,0.220486 -0.210151,0.440972 -0.137804,0.217041 -0.3514,0.451308 -0.210151,0.234266 -0.499539,0.513319 L 84.389163,81.36409 H 86.5768 Z" />
      </g>
      <g
         id="text2366"
         style="font-style:normal;font-weight:normal;font-size:2.82222223px;line-height:1.25;font-family:sans-serif;letter-spacing:0px;word-spacing:0px;display:inline;fill:#000000;fill-opacity:1;stroke:none;stroke-width:0.26458335"
         aria-label="11/11"
         transform="translate(-7.7254321,-8.0028026)">
        <path
           inkscape:connector-curvature="0"
           id="path106"
           style="font-size:2.82222223px;stroke-width:0.26458335"
           d="m 44.502419,87.920961 h 0.454752 v -1.569585 l -0.494715,0.09922 v -0.253559 l 0.491959,-0.09922 h 0.278364 v 1.823144 h 0.454753 v 0.234267 h -1.185113 z" />
        <path
           inkscape:connector-curvature="0"
           id="path108"
           style="font-size:2.82222223px;stroke-width:0.26458335"
           d="m 46.299381,87.920961 h 0.454752 v -1.569585 l -0.494715,0.09922 v -0.253559 l 0.491959,-0.09922 h 0.278364 v 1.823144 h 0.454752 v 0.234267 h -1.185112 z" />
        <path
           inkscape:connector-curvature="0"
           id="path110"
           style="font-size:2.82222223px;stroke-width:0.26458335"
           d="m 48.462901,86.097817 h 0.234266 l -0.71658,2.319238 h -0.234266 z" />
        <path
           inkscape:connector-curvature="0"
           id="path112"
           style="font-size:2.82222223px;stroke-width:0.26458335"
           d="m 49.049945,87.920961 h 0.454752 v -1.569585 l -0.494715,0.09922 v -0.253559 l 0.491959,-0.09922 h 0.278364 v 1.823144 h 0.454753 v 0.234267 h -1.185113 z" />
        <path
           inkscape:connector-curvature="0"
           id="path114"
           style="font-size:2.82222223px;stroke-width:0.26458335"
           d="m 50.846907,87.920961 h 0.454752 v -1.569585 l -0.494716,0.09922 v -0.253559 l 0.49196,-0.09922 h 0.278364 v 1.823144 h 0.454752 v 0.234267 h -1.185112 z" />
      </g>
      <rect
         ry="2.5200028"
         y="86.082153"
         x="72.533836"
         height="7.1077008"
         width="14.70899"
         id="rect2372-1"
         style="display:inline;opacity:1;fill:#999999;fill-opacity:1;stroke:#999999;stroke-width:0.26458335;stroke-opacity:1"
         transform="translate(-7.7254321,-8.0028026)" />
      <g
         id="text915"
         style="font-style:normal;font-variant:normal;font-weight:normal;font-stretch:normal;font-size:3.52777791px;line-height:1.25;font-family:Consolas;-inkscape-font-specification:Consolas;letter-spacing:0px;word-spacing:0px;display:inline;fill:#000000;fill-opacity:1;stroke:none;stroke-width:0.26458335"
         aria-label="JANE DOE"
         transform="translate(-7.7254321,-8.0028026)">
        <path
           inkscape:connector-curvature="0"
           id="path917"
           style="font-style:normal;font-variant:normal;font-weight:normal;font-stretch:normal;font-size:3.52777791px;font-family:Consolas;-inkscape-font-specification:Consolas;stroke-width:0.26458335"
           d="m 14.86093,89.558048 v 1.564073 q 0,0.144694 -0.04306,0.275608 -0.04306,0.129191 -0.130914,0.225654 -0.08785,0.09646 -0.220486,0.153306 -0.132636,0.05684 -0.311781,0.05684 -0.06718,0 -0.137804,-0.01033 -0.0689,-0.0086 -0.134359,-0.02412 -0.06373,-0.01722 -0.120578,-0.03962 -0.05684,-0.02412 -0.09819,-0.05168 v -0.308336 q 0.106798,0.07752 0.235989,0.122301 0.130913,0.04479 0.258382,0.04479 0.187758,0 0.289388,-0.113688 0.10163,-0.11541 0.10163,-0.330729 V 89.82332 h -0.856106 v -0.265272 z" />
        <path
           inkscape:connector-curvature="0"
           id="path919"
           style="font-style:normal;font-variant:normal;font-weight:normal;font-stretch:normal;font-size:3.52777791px;font-family:Consolas;-inkscape-font-specification:Consolas;stroke-width:0.26458335"
           d="m 17.215653,91.809418 h -0.334174 l -0.156752,-0.490926 h -0.937066 l -0.158474,0.490926 h -0.318672 l 0.747586,-2.25137 h 0.420302 z m -0.578776,-0.764812 -0.380683,-1.20406 -0.380683,1.20406 z" />
        <path
           inkscape:connector-curvature="0"
           id="path921"
           style="font-style:normal;font-variant:normal;font-weight:normal;font-stretch:normal;font-size:3.52777791px;font-family:Consolas;-inkscape-font-specification:Consolas;stroke-width:0.26458335"
           d="M 18.972652,91.809418 H 18.573021 L 17.91673,90.405541 17.72725,89.954234 v 1.135159 0.720025 h -0.285943 v -2.25137 h 0.394463 l 0.625285,1.329807 0.225654,0.515041 v -1.205783 -0.639065 h 0.285943 z" />
        <path
           inkscape:connector-curvature="0"
           id="path923"
           style="font-style:normal;font-variant:normal;font-weight:normal;font-stretch:normal;font-size:3.52777791px;font-family:Consolas;-inkscape-font-specification:Consolas;stroke-width:0.26458335"
           d="M 20.805443,91.809418 H 19.52559 v -2.25137 h 1.279853 v 0.258382 h -0.97324 v 0.697632 h 0.935344 v 0.258382 h -0.935344 v 0.775146 h 0.97324 z" />
        <path
           inkscape:connector-curvature="0"
           id="path925"
           style="font-style:normal;font-variant:normal;font-weight:normal;font-stretch:normal;font-size:3.52777791px;font-family:Consolas;-inkscape-font-specification:Consolas;stroke-width:0.26458335"
           d="m 24.879269,90.658756 q 0,0.161919 -0.02584,0.310058 -0.02411,0.14814 -0.07924,0.275608 -0.05512,0.127469 -0.142971,0.232544 -0.08785,0.103353 -0.215319,0.177422 -0.127468,0.07407 -0.296278,0.115411 -0.16881,0.03962 -0.384128,0.03962 H 23.25318 v -2.25137 h 0.580498 q 0.5271,0 0.785482,0.272162 0.260105,0.27044 0.260105,0.828546 z m -0.322117,0.02239 q 0,-0.239434 -0.04479,-0.404799 -0.04479,-0.165364 -0.136081,-0.266995 -0.09129,-0.10163 -0.229099,-0.146416 -0.137804,-0.04651 -0.323839,-0.04651 h -0.26355 v 1.727715 h 0.229099 q 0.768256,0 0.768256,-0.862996 z" />
        <path
           inkscape:connector-curvature="0"
           id="path927"
           style="font-style:normal;font-variant:normal;font-weight:normal;font-stretch:normal;font-size:3.52777791px;font-family:Consolas;-inkscape-font-specification:Consolas;stroke-width:0.26458335"
           d="m 26.853308,90.669091 q 0,0.303168 -0.07235,0.523655 -0.07062,0.220486 -0.192926,0.36518 -0.120578,0.142971 -0.28422,0.213596 -0.161919,0.0689 -0.342787,0.0689 -0.217041,0 -0.37896,-0.07752 -0.160197,-0.07924 -0.266995,-0.227376 -0.105076,-0.148139 -0.156752,-0.360013 -0.05168,-0.213596 -0.05168,-0.480591 0,-0.299723 0.07062,-0.520209 0.07062,-0.220486 0.191203,-0.363458 0.1223,-0.144694 0.28422,-0.213596 0.161919,-0.07062 0.342787,-0.07062 0.217041,0 0.377238,0.07924 0.161919,0.07924 0.268717,0.227376 0.106798,0.146417 0.158475,0.35829 0.0534,0.211874 0.0534,0.477146 z m -0.318672,0.02239 q 0,-0.198093 -0.03101,-0.361735 -0.02928,-0.165364 -0.09646,-0.28422 -0.06718,-0.118856 -0.173977,-0.184313 -0.105076,-0.06546 -0.254937,-0.06546 -0.144695,0 -0.24977,0.07062 -0.103353,0.0689 -0.170532,0.18948 -0.06718,0.118856 -0.09991,0.280775 -0.03273,0.160197 -0.03273,0.341065 0,0.199815 0.03101,0.36518 0.03101,0.163642 0.09646,0.282498 0.06718,0.117133 0.172255,0.18259 0.105075,0.06546 0.253215,0.06546 0.144694,0 0.249769,-0.0689 0.105075,-0.07062 0.172255,-0.18948 0.0689,-0.120579 0.10163,-0.280776 0.03273,-0.160197 0.03273,-0.342787 z" />
        <path
           inkscape:connector-curvature="0"
           id="path929"
           style="font-style:normal;font-variant:normal;font-weight:normal;font-stretch:normal;font-size:3.52777791px;font-family:Consolas;-inkscape-font-specification:Consolas;stroke-width:0.26458335"
           d="m 28.577578,91.809418 h -1.279853 v -2.25137 h 1.279853 v 0.258382 h -0.973239 v 0.697632 h 0.935343 v 0.258382 h -0.935343 v 0.775146 h 0.973239 z" />
      </g>
    </g>
  </g>
</svg>
