<?xml version="1.0" encoding="utf-8"?>
<!-- Generator: Adobe Illustrator 19.2.1, SVG Export Plug-In . SVG Version: 6.00 Build 0)  -->
<svg version="1.1" id="Layer_1" xmlns="http://www.w3.org/2000/svg" xmlns:xlink="http://www.w3.org/1999/xlink" x="0px" y="0px"
	 viewBox="0 0 512 512" style="enable-background:new 0 0 512 512;" xml:space="preserve">
<style type="text/css">
	.st0{fill:#ECF0F1;}
	.st1{fill:#00b3b3;}
	.st2{fill:#00b3b3;}
	.st3{fill:#FFFFFF;}
</style>
<g>
	<g>
		<path class="st0" d="M161.5,373.2L92.9,412c-4,2.3-7.6,5.1-11,8.1c40,34.9,91.6,56,148.1,56c56,0,107.3-20.7,147.2-55.2
			c-3.7-3.2-7.7-6.1-12.1-8.4l-73.5-38c-9.5-4.9-15.5-15-15.5-25.9v-29.8c2.1-2.4,4.4-5.6,7-9.3c10-14.6,17.6-30.7,22.8-47.6
			c9.4-3,16.4-12,16.4-22.7v-31.9c0-7-3-13.3-7.7-17.7v-46c0,0,9.1-71.7-84.6-71.7s-84.6,71.7-84.6,71.7v46
			c-4.7,4.4-7.7,10.6-7.7,17.7v31.9c0,8.4,4.3,15.8,10.6,20c7.7,34.6,27.8,59.6,27.8,59.6v29.1C176.1,358.4,170.5,368.2,161.5,373.2
			z"/>
		<g>
			<path class="st1" d="M233.9,0C106.9-2.2,2.2,102.5,0,234C-1.2,308.5,30.9,375.5,82,420c3.3-3,6.9-5.8,10.9-8l68.6-38.7
				c9-5.1,14.6-14.8,14.6-25.5v-29.1c0,0-20.1-24.9-27.8-59.6c-6.4-4.3-10.6-11.6-10.6-20v-31.9c0-7,3-13.3,7.7-17.7v-46
				c0,0-9.1-71.7,84.6-71.7s84.6,71.7,84.6,71.7v46c4.7,4.4,7.7,10.6,7.7,17.7v31.9c0,10.7-6.9,19.7-16.4,22.7
				c-5.3,16.9-12.8,33-22.8,47.6c-2.5,3.7-4.9,6.8-7,9.3v29.8c0,11,6,21,15.5,25.9l73.5,38c4.4,2.3,8.4,5.2,12.1,8.4
				c49.6-42.8,81.6-106.7,82.8-178.8C462.1,110.7,360.9,2.3,233.9,0z"/>
		</g>
	</g>
	<g>
		<ellipse class="st2" cx="407.9" cy="404.2" rx="104.1" ry="107.8"/>
		<path class="st3" d="M464.9,351.9c-3.9-2.8-9.3-1.8-12.1,2.2l-48.6,72.2L370,397.3c-3.7-3.2-9.2-2.6-12.2,1.2
			c-3,3.8-2.5,9.5,1.2,12.6l41.5,35.3c1.6,1.3,3.5,2,5.5,2c0.4,0,0.8,0,1.2-0.1c2.4-0.4,4.5-1.7,5.9-3.8l53.9-80.2
			C469.8,360.4,468.8,354.8,464.9,351.9z"/>
	</g>
</g>
</svg>
