<?xml version="1.0" encoding="utf-8"?>
<!-- Generator: Adobe Illustrator 16.0.0, SVG Export Plug-In . SVG Version: 6.00 Build 0)  -->
<!DOCTYPE svg PUBLIC "-//W3C//DTD SVG 1.1//EN" "http://www.w3.org/Graphics/SVG/1.1/DTD/svg11.dtd">
<svg version="1.1" id="Capa_1" xmlns="http://www.w3.org/2000/svg" xmlns:xlink="http://www.w3.org/1999/xlink" x="0px" y="0px"
	 width="625px" height="190px" viewBox="5.5 152.5 625 190" enable-background="new 5.5 152.5 625 190" xml:space="preserve">
<path fill="#D1D1D1" d="M607.808,262.64H61.99c-4.079,0-7.462-2.509-7.462-5.533l0,0c0-3.024,3.383-5.533,7.462-5.533h545.818
	c4.078,0,7.462,2.509,7.462,5.533l0,0C615.27,260.131,611.886,262.64,607.808,262.64z"/>
<g>
	<path fill="#00b3b3" d="M57.84,290.969h0.221c19.329,0,34.97-15.64,34.97-34.969s-15.641-34.969-34.97-34.969H57.84
		c-19.329,0-34.97,15.64-34.97,34.969S38.511,290.969,57.84,290.969z"/>
	<path display="none" fill="#00b3b3" d="M327.969,292.075h0.222c19.328,0,34.969-15.64,34.969-34.969s-15.641-34.969-34.969-34.969
		h-0.222c-19.329,0-34.97,15.64-34.97,34.969S308.64,292.075,327.969,292.075z"/>
	<path fill="#00b3b3" d="M194.435,292.075h0.222c19.328,0,34.969-15.64,34.969-34.969s-15.641-34.969-34.969-34.969h-0.222
		c-19.329,0-34.97,15.64-34.97,34.969S175.106,292.075,194.435,292.075z"/>
	<path display="none" fill="#00b3b3" d="M578.969,292.075h0.222c19.328,0,34.969-15.64,34.969-34.969s-15.641-34.969-34.969-34.969
		h-0.222c-19.329,0-34.97,15.64-34.97,34.969S559.64,292.075,578.969,292.075z"/>
	<path display="none" fill="#D1D1D1" d="M327.857,290.969h0.442c19.329,0,34.97-15.64,34.97-34.969s-15.641-34.969-34.97-34.969
		h-0.442c-19.329,0-34.97,15.64-34.97,34.969S308.528,290.969,327.857,290.969z"/>
	<path display="none" fill="#D1D1D1" d="M194.324,292.075h0.442c19.329,0,34.97-15.64,34.97-34.969s-15.641-34.969-34.97-34.969
		h-0.442c-19.329,0-34.97,15.64-34.97,34.969S174.995,292.075,194.324,292.075z"/>
	<path fill="#D1D1D1" d="M58.172,290.969c19.329,0,34.969-15.64,34.969-34.969s-15.64-34.969-34.969-34.969h-0.443
		c-19.255,0-34.969,15.64-34.969,34.969s15.64,34.969,34.969,34.969H58.172z"/>
	<path fill="#D1D1D1" d="M327.968,290.969h0.222c19.329,0,34.969-15.64,34.969-34.969s-15.64-34.969-34.969-34.969h-0.222
		c-19.329,0-34.97,15.64-34.97,34.969S308.639,290.969,327.968,290.969z"/>
	<path fill="#D1D1D1" d="M461.316,290.969h0.222c19.329,0,34.969-15.64,34.969-34.969s-15.64-34.969-34.969-34.969h-0.222
		c-19.329,0-34.97,15.64-34.97,34.969S441.987,290.969,461.316,290.969z"/>
	<path fill="#D1D1D1" d="M578.857,292.075h0.442c19.329,0,34.97-15.64,34.97-34.969s-15.641-34.969-34.97-34.969h-0.442
		c-19.329,0-34.97,15.64-34.97,34.969S559.528,292.075,578.857,292.075z"/>
</g>
</svg>
